# xmcd
# 
# Track frame offsets:
#     150
#     8635
#     23607
#     39190
#     61870
#     75022
#     89045
#     106275
# 
# Disc length: 1574
# 
# Revision: 8
# Processed by: cddbd v1.5.2PL0 Copyright (c) Steve Scherf et al.
# Submitted via: BonkEnc v1.0.5
# 
DISCID=47062408
DTITLE=akiko - Little Miss Jazz And Jive Goes Around The World!
DYEAR=2005
DGENRE=Jazz
TTITLE0=It Don't Mean A Thing (If It Ain't Got That Swing)
TTITLE1=Around The World
TTITLE2=Flat Foot Floogie
TTITLE3=Is You Is Or Is You Ain't My Baby
TTITLE4=I Want You To Be My Baby
TTITLE5=Mr. Sandman
TTITLE6=I'm Beginning To See The Light
TTITLE7=The Music Goes 'round And 'round
EXTD=YEAR: 2005
EXTT0=
EXTT1=
EXTT2=
EXTT3=
EXTT4=
EXTT5=
EXTT6=
EXTT7=
PLAYORDER=
